# Blender v2.72 (sub 0) OBJ File: 'Cylinder.blend'
# www.blender.org
mtllib Cylinder.mtl
o Cylinder.002
v 0.000000 -100.000000 -100.000000
v 0.000000 100.000000 -100.000000
v 19.509033 -100.000000 -98.078522
v 19.509033 100.000000 -98.078522
v 38.268345 -100.000000 -92.387947
v 38.268345 100.000000 -92.387947
v 55.557026 -100.000000 -83.146957
v 55.557026 100.000000 -83.146957
v 70.710678 -100.000000 -70.710678
v 70.710678 100.000000 -70.710678
v 83.146965 -100.000000 -55.557018
v 83.146965 100.000000 -55.557018
v 92.387947 -100.000000 -38.268341
v 92.387947 100.000000 -38.268341
v 98.078522 -100.000000 -19.509035
v 98.078522 100.000000 -19.509035
v 100.000000 -100.000000 -0.000008
v 100.000000 100.000000 -0.000008
v 98.078529 -100.000000 19.509020
v 98.078529 100.000000 19.509020
v 92.387955 -100.000000 38.268326
v 92.387955 100.000000 38.268326
v 83.146965 -100.000000 55.557018
v 83.146965 100.000000 55.557018
v 70.710678 -100.000000 70.710678
v 70.710678 100.000000 70.710678
v 55.557018 -100.000000 83.146965
v 55.557018 100.000000 83.146965
v 38.268326 -100.000000 92.387962
v 38.268326 100.000000 92.387962
v 19.509008 -100.000000 98.078529
v 19.509008 100.000000 98.078529
v -0.000033 -100.000000 100.000000
v -0.000033 100.000000 100.000000
v -19.509073 -100.000000 98.078522
v -19.509073 100.000000 98.078522
v -38.268387 -100.000000 92.387932
v -38.268387 100.000000 92.387932
v -55.557072 -100.000000 83.146927
v -55.557072 100.000000 83.146927
v -70.710724 -100.000000 70.710632
v -70.710724 100.000000 70.710632
v -83.147003 -100.000000 55.556965
v -83.147003 100.000000 55.556965
v -92.387985 -100.000000 38.268269
v -92.387985 100.000000 38.268269
v -98.078545 -100.000000 19.508945
v -98.078545 100.000000 19.508945
v -100.000000 -100.000000 -0.000097
v -100.000000 100.000000 -0.000097
v -98.078506 -100.000000 -19.509134
v -98.078506 100.000000 -19.509134
v -92.387909 -100.000000 -38.268448
v -92.387909 100.000000 -38.268448
v -83.146896 -100.000000 -55.557125
v -83.146896 100.000000 -55.557125
v -70.710587 -100.000000 -70.710770
v -70.710587 100.000000 -70.710770
v -55.556911 -100.000000 -83.147034
v -55.556911 100.000000 -83.147034
v -38.268208 -100.000000 -92.388008
v -38.268208 100.000000 -92.388008
v -19.508883 -100.000000 -98.078552
v -19.508883 100.000000 -98.078552
v 0.000000 -100.000000 -100.000000
v 19.509033 -100.000000 -98.078522
v 19.509033 100.000000 -98.078522
v 0.000000 100.000000 -100.000000
v 38.268345 -100.000000 -92.387947
v 38.268345 100.000000 -92.387947
v 55.557026 -100.000000 -83.146957
v 55.557026 100.000000 -83.146957
v 70.710678 -100.000000 -70.710678
v 70.710678 100.000000 -70.710678
v 83.146965 -100.000000 -55.557018
v 83.146965 100.000000 -55.557018
v 92.387947 -100.000000 -38.268341
v 92.387947 100.000000 -38.268341
v 98.078522 -100.000000 -19.509035
v 98.078522 100.000000 -19.509035
v 100.000000 -100.000000 -0.000008
v 100.000000 100.000000 -0.000008
v 98.078529 -100.000000 19.509020
v 98.078529 100.000000 19.509020
v 92.387955 -100.000000 38.268326
v 92.387955 100.000000 38.268326
v 83.146965 -100.000000 55.557018
v 83.146965 100.000000 55.557018
v 70.710678 -100.000000 70.710678
v 70.710678 100.000000 70.710678
v 55.557018 -100.000000 83.146965
v 55.557018 100.000000 83.146965
v 38.268326 -100.000000 92.387962
v 38.268326 100.000000 92.387962
v 19.509008 -100.000000 98.078529
v 19.509008 100.000000 98.078529
v -0.000033 -100.000000 100.000000
v -0.000033 100.000000 100.000000
v -19.509073 -100.000000 98.078522
v -19.509073 100.000000 98.078522
v -38.268387 -100.000000 92.387932
v -38.268387 100.000000 92.387932
v -55.557072 -100.000000 83.146927
v -55.557072 100.000000 83.146927
v -70.710724 -100.000000 70.710632
v -70.710724 100.000000 70.710632
v -83.147003 -100.000000 55.556965
v -83.147003 100.000000 55.556965
v -92.387985 -100.000000 38.268269
v -92.387985 100.000000 38.268269
v -98.078545 -100.000000 19.508945
v -98.078545 100.000000 19.508945
v -100.000000 -100.000000 -0.000097
v -100.000000 100.000000 -0.000097
v -98.078506 -100.000000 -19.509134
v -98.078506 100.000000 -19.509134
v -92.387909 -100.000000 -38.268448
v -92.387909 100.000000 -38.268448
v -83.146896 -100.000000 -55.557125
v -83.146896 100.000000 -55.557125
v -70.710587 -100.000000 -70.710770
v -70.710587 100.000000 -70.710770
v -55.556911 -100.000000 -83.147034
v -55.556911 100.000000 -83.147034
v -38.268208 -100.000000 -92.388008
v -38.268208 100.000000 -92.388008
v -19.508883 -100.000000 -98.078552
v -19.508883 100.000000 -98.078552
vt 0.250000 0.655950
vt 0.218750 0.655950
vt 0.218751 0.337128
vt 0.187500 0.655950
vt 0.187501 0.337128
vt 0.156250 0.655950
vt 0.156251 0.337128
vt 0.125000 0.655949
vt 0.125001 0.337128
vt 0.093750 0.655949
vt 0.093751 0.337128
vt 0.062500 0.655949
vt 0.062501 0.337128
vt 0.031250 0.655949
vt 0.031251 0.337127
vt 0.000000 0.655949
vt 0.000001 0.337127
vt 1.000000 0.655949
vt 0.968750 0.655949
vt 0.968749 0.337127
vt 0.937500 0.655949
vt 0.937499 0.337127
vt 0.906250 0.655949
vt 0.906249 0.337128
vt 0.875000 0.655949
vt 0.874999 0.337128
vt 0.843750 0.655949
vt 0.843750 0.337128
vt 0.812500 0.655949
vt 0.812499 0.337128
vt 0.781250 0.655949
vt 0.781249 0.337128
vt 0.750000 0.655950
vt 0.749999 0.337128
vt 0.718750 0.655950
vt 0.718749 0.337128
vt 0.687500 0.655950
vt 0.687500 0.337128
vt 0.656250 0.655950
vt 0.656250 0.337128
vt 0.625000 0.655950
vt 0.625000 0.337128
vt 0.593750 0.655950
vt 0.593750 0.337128
vt 0.562500 0.655950
vt 0.562500 0.337128
vt 0.531250 0.655950
vt 0.531250 0.337128
vt 0.500000 0.655950
vt 0.500000 0.337128
vt 0.468750 0.655950
vt 0.468750 0.337128
vt 0.437500 0.655950
vt 0.437500 0.337128
vt 0.406250 0.655950
vt 0.406250 0.337128
vt 0.375000 0.655950
vt 0.375000 0.337128
vt 0.343750 0.655950
vt 0.343750 0.337128
vt 0.312500 0.655950
vt 0.312500 0.337128
vt 0.174268 0.973236
vt 0.000000 0.830218
vt 0.143018 0.655950
vt 0.281250 0.655950
vt 0.250001 0.337128
vt 0.281250 0.337128
vt 0.825739 0.019980
vt 0.942493 0.055397
vt 1.000007 0.162998
vt 0.999999 0.337127
vt 0.281869 0.915722
vt 0.204918 0.967140
vt 0.259772 0.937819
vt 0.233789 0.955181
vt 0.299231 0.889739
vt 0.317286 0.798968
vt 0.317286 0.830218
vt 0.311190 0.860868
vt 0.259772 0.691367
vt 0.311190 0.768319
vt 0.299231 0.739447
vt 0.281869 0.713464
vt 0.204918 0.662047
vt 0.233789 0.674005
vt 0.174268 0.655950
vt 0.112369 0.662046
vt 0.083497 0.674005
vt 0.057514 0.691367
vt 0.006097 0.768319
vt 0.018055 0.739447
vt 0.035417 0.713464
vt 0.000000 0.798968
vt 0.057514 0.937819
vt 0.035417 0.915722
vt 0.018056 0.889739
vt 0.006097 0.860868
vt 0.112369 0.967140
vt 0.083498 0.955181
vt 0.143018 0.973236
vt 0.964590 0.077494
vt 0.718138 0.077493
vt 0.740235 0.055396
vt 0.700776 0.103477
vt 0.688817 0.132348
vt 0.682721 0.162998
vt 0.700776 0.253768
vt 0.688817 0.224897
vt 0.682721 0.194248
vt 0.718137 0.279751
vt 0.766218 0.038035
vt 0.993910 0.224897
vt 0.740234 0.301848
vt 0.766217 0.319210
vt 0.856989 0.337266
vt 0.825738 0.337266
vt 0.795088 0.331169
vt 0.916510 0.319210
vt 0.887639 0.331169
vt 0.964590 0.279752
vt 0.942493 0.301849
vt 0.981951 0.253769
vt 1.000007 0.194248
vt 0.993910 0.132348
vt 0.887638 0.026076
vt 0.916509 0.038035
vt 0.856989 0.019980
vt 0.795089 0.026076
vt 0.981952 0.103477
vn 0.000000 0.000000 -1.000000
vn 0.195100 0.000000 -0.980800
vn 0.382700 0.000000 -0.923900
vn 0.555600 0.000000 -0.831500
vn 0.707100 0.000000 -0.707100
vn 0.831500 0.000000 -0.555600
vn 0.923900 0.000000 -0.382700
vn 0.980800 0.000000 -0.195100
vn 1.000000 0.000000 -0.000000
vn 0.980800 0.000000 0.195100
vn 0.923900 0.000000 0.382700
vn 0.831500 0.000000 0.555600
vn 0.707100 0.000000 0.707100
vn 0.555600 0.000000 0.831500
vn 0.382700 0.000000 0.923900
vn 0.195100 0.000000 0.980800
vn 0.000000 0.000000 1.000000
vn -0.195100 0.000000 0.980800
vn -0.382700 0.000000 0.923900
vn -0.555600 0.000000 0.831500
vn -0.707100 0.000000 0.707100
vn -0.831500 0.000000 0.555600
vn -0.923900 0.000000 0.382700
vn -0.980800 0.000000 0.195100
vn -1.000000 0.000000 -0.000000
vn -0.980800 0.000000 -0.195100
vn -0.923900 0.000000 -0.382700
vn -0.831500 0.000000 -0.555600
vn -0.707100 0.000000 -0.707100
vn -0.555600 0.000000 -0.831500
vn -0.382700 0.000000 -0.923900
vn 0.000000 1.000000 0.000000
vn -0.195100 0.000000 -0.980800
vn 0.000000 -1.000000 -0.000000
usemtl None
s 1
f 2/1/1 4/2/2 3/3/2
f 4/2/2 6/4/3 5/5/3
f 6/4/3 8/6/4 7/7/4
f 8/6/4 10/8/5 9/9/5
f 10/8/5 12/10/6 11/11/6
f 12/10/6 14/12/7 13/13/7
f 14/12/7 16/14/8 15/15/8
f 16/14/8 18/16/9 17/17/9
f 18/18/9 20/19/10 19/20/10
f 20/19/10 22/21/11 21/22/11
f 22/21/11 24/23/12 23/24/12
f 24/23/12 26/25/13 25/26/13
f 26/25/13 28/27/14 27/28/14
f 28/27/14 30/29/15 29/30/15
f 30/29/15 32/31/16 31/32/16
f 32/31/16 34/33/17 33/34/17
f 34/33/17 36/35/18 35/36/18
f 36/35/18 38/37/19 37/38/19
f 38/37/19 40/39/20 39/40/20
f 40/39/20 42/41/21 41/42/21
f 42/41/21 44/43/22 43/44/22
f 44/43/22 46/45/23 45/46/23
f 46/45/23 48/47/24 47/48/24
f 48/47/24 50/49/25 49/50/25
f 50/49/25 52/51/26 51/52/26
f 52/51/26 54/53/27 53/54/27
f 54/53/27 56/55/28 55/56/28
f 56/55/28 58/57/29 57/58/29
f 58/57/29 60/59/30 59/60/30
f 60/59/30 62/61/31 61/62/31
f 67/63/32 116/64/32 100/65/32
f 128/66/33 2/1/1 1/67/1
f 62/61/31 128/66/33 63/68/33
f 69/69/34 77/70/34 85/71/34
f 1/67/1 2/1/1 3/3/2
f 3/3/2 4/2/2 5/5/3
f 5/5/3 6/4/3 7/7/4
f 7/7/4 8/6/4 9/9/5
f 9/9/5 10/8/5 11/11/6
f 11/11/6 12/10/6 13/13/7
f 13/13/7 14/12/7 15/15/8
f 15/15/8 16/14/8 17/17/9
f 17/72/9 18/18/9 19/20/10
f 19/20/10 20/19/10 21/22/11
f 21/22/11 22/21/11 23/24/12
f 23/24/12 24/23/12 25/26/13
f 25/26/13 26/25/13 27/28/14
f 27/28/14 28/27/14 29/30/15
f 29/30/15 30/29/15 31/32/16
f 31/32/16 32/31/16 33/34/17
f 33/34/17 34/33/17 35/36/18
f 35/36/18 36/35/18 37/38/19
f 37/38/19 38/37/19 39/40/20
f 39/40/20 40/39/20 41/42/21
f 41/42/21 42/41/21 43/44/22
f 43/44/22 44/43/22 45/46/23
f 45/46/23 46/45/23 47/48/24
f 47/48/24 48/47/24 49/50/25
f 49/50/25 50/49/25 51/52/26
f 51/52/26 52/51/26 53/54/27
f 53/54/27 54/53/27 55/56/28
f 55/56/28 56/55/28 57/58/29
f 57/58/29 58/57/29 59/60/30
f 59/60/30 60/59/30 61/62/31
f 67/63/32 76/73/32 70/74/32
f 76/73/32 74/75/32 72/76/32
f 76/73/32 67/63/32 78/77/32
f 84/78/32 82/79/32 80/80/32
f 84/78/32 92/81/32 86/82/32
f 88/83/32 86/82/32 90/84/32
f 96/85/32 94/86/32 92/81/32
f 100/65/32 98/87/32 96/85/32
f 100/65/32 116/64/32 102/88/32
f 104/89/32 116/64/32 106/90/32
f 112/91/32 110/92/32 108/93/32
f 116/64/32 114/94/32 112/91/32
f 124/95/32 122/96/32 116/64/32
f 120/97/32 118/98/32 122/96/32
f 64/99/32 126/100/32 124/95/32
f 67/63/32 68/101/32 64/99/32
f 61/62/31 62/61/31 63/68/33
f 86/82/32 92/81/32 90/84/32
f 67/63/32 84/78/32 80/80/32
f 100/65/32 96/85/32 92/81/32
f 67/63/32 80/80/32 78/77/32
f 108/93/32 106/90/32 112/91/32
f 116/64/32 104/89/32 102/88/32
f 67/63/32 64/99/32 124/95/32
f 122/96/32 118/98/32 116/64/32
f 84/78/32 67/63/32 92/81/32
f 76/73/32 72/76/32 70/74/32
f 67/63/32 124/95/32 116/64/32
f 106/90/32 116/64/32 112/91/32
f 63/68/33 128/66/33 1/67/1
f 67/63/32 100/65/32 92/81/32
f 85/71/34 77/70/34 79/102/34
f 125/103/34 127/104/34 123/105/34
f 121/106/34 127/104/34 119/107/34
f 113/108/34 115/109/34 117/110/34
f 111/111/34 65/112/34 89/113/34
f 109/114/34 111/111/34 107/115/34
f 101/116/34 103/117/34 105/118/34
f 97/119/34 99/120/34 101/116/34
f 111/111/34 105/118/34 107/115/34
f 93/121/34 95/122/34 91/123/34
f 85/71/34 87/124/34 89/113/34
f 85/71/34 79/102/34 83/125/34
f 91/123/34 97/119/34 111/111/34
f 73/126/34 75/127/34 77/70/34
f 69/69/34 71/128/34 73/126/34
f 69/69/34 85/71/34 66/129/34
f 127/104/34 65/112/34 113/108/34
f 97/119/34 101/116/34 105/118/34
f 111/111/34 113/108/34 65/112/34
f 111/111/34 97/119/34 105/118/34
f 79/102/34 81/130/34 83/125/34
f 89/113/34 65/112/34 85/71/34
f 85/71/34 65/112/34 66/129/34
f 73/126/34 77/70/34 69/69/34
f 91/123/34 95/122/34 97/119/34
f 127/104/34 121/106/34 123/105/34
f 127/104/34 113/108/34 117/110/34
f 89/113/34 91/123/34 111/111/34
f 127/104/34 117/110/34 119/107/34
