{
  "accessors": [
    {
      "bufferView": 2,
      "componentType": 5126,
      "count": 5868,
      "max": [
        137.59483337402344,
        310.6334228515625,
        242.2953643798828
      ],
      "min": [
        -138.20455932617188,
        -346.9200439453125,
        30.245758056640625
      ],
      "type": "VEC3"
    },
    {
      "bufferView": 2,
      "byteOffset": 70416,
      "componentType": 5126,
      "count": 5868,
      "max": [
        1.0,
        0.999994158744812,
        0.9999993443489075
      ],
      "min": [
        -0.9999905824661255,
        -0.9999995231628418,
        -0.9999996423721313
      ],
      "type": "VEC3"
    },
    {
      "bufferView": 1,
      "componentType": 5126,
      "count": 5868,
      "max": [
        0.9921875,
        0.9966068267822266
      ],
      "min": [
        0.002899169921875,
        0.005859375
      ],
      "type": "VEC2"
    },
    {
      "bufferView": 1,
      "byteOffset": 46944,
      "componentType": 5126,
      "count": 5868,
      "max": [
        1.0019108057022095,
        2.000784158706665
      ],
      "min": [
        -1.00191068649292,
        -0.0027878284454345703
      ],
      "type": "VEC2"
    },
    {
      "bufferView": 1,
      "byteOffset": 93888,
      "componentType": 5126,
      "count": 5868,
      "max": [
        0.9984879493713379,
        2.0023481845855713
      ],
      "min": [
        -1.002203106880188,
        -0.002418994903564453
      ],
      "type": "VEC2"
    },
    {
      "bufferView": 1,
      "byteOffset": 140832,
      "componentType": 5126,
      "count": 5868,
      "max": [
        1.0027878284454346,
        2.000199317932129
      ],
      "min": [
        -0.9984879493713379,
        -0.00019931793212890625
      ],
      "type": "VEC2"
    },
    {
      "bufferView": 1,
      "byteOffset": 187776,
      "componentType": 5126,
      "count": 5868,
      "max": [
        0.0,
        1.0
      ],
      "min": [
        0.0,
        1.0
      ],
      "type": "VEC2"
    },
    {
      "bufferView": 1,
      "byteOffset": 234720,
      "componentType": 5126,
      "count": 5868,
      "max": [
        -53.34858703613281,
        219.27273559570313
      ],
      "min": [
        -308.7436218261719,
        13.59716796875
      ],
      "type": "VEC2"
    },
    {
      "bufferView": 1,
      "byteOffset": 281664,
      "componentType": 5126,
      "count": 5868,
      "max": [
        0.1328125,
        0.8828125
      ],
      "min": [
        0.1328125,
        0.8828125
      ],
      "type": "VEC2"
    },
    {
      "bufferView": 1,
      "byteOffset": 328608,
      "componentType": 5126,
      "count": 5868,
      "max": [
        0.0,
        1.0
      ],
      "min": [
        0.0,
        1.0
      ],
      "type": "VEC2"
    },
    {
      "bufferView": 0,
      "componentType": 5125,
      "count": 13536,
      "type": "SCALAR"
    },
    {
      "bufferView": 2,
      "byteOffset": 140832,
      "componentType": 5126,
      "count": 3404,
      "max": [
        116.16370391845703,
        322.33154296875,
        187.48223876953125
      ],
      "min": [
        -121.68694305419922,
        -84.21832275390625,
        102.34530639648438
      ],
      "type": "VEC3"
    },
    {
      "bufferView": 2,
      "byteOffset": 181680,
      "componentType": 5126,
      "count": 3404,
      "max": [
        0.9999979138374329,
        0.9999962449073792,
        0.9999943375587463
      ],
      "min": [
        -0.9999924898147583,
        -0.999980628490448,
        -0.9999995827674866
      ],
      "type": "VEC3"
    },
    {
      "bufferView": 1,
      "byteOffset": 375552,
      "componentType": 5126,
      "count": 3404,
      "max": [
        0.998046875,
        0.9960594177246094
      ],
      "min": [
        0.003162384033203125,
        0.005859375
      ],
      "type": "VEC2"
    },
    {
      "bufferView": 1,
      "byteOffset": 402784,
      "componentType": 5126,
      "count": 3404,
      "max": [
        1.0019108057022095,
        1.9904297590255737
      ],
      "min": [
        -1.00191068649292,
        0.015246450901031494
      ],
      "type": "VEC2"
    },
    {
      "bufferView": 1,
      "byteOffset": 430016,
      "componentType": 5126,
      "count": 3404,
      "max": [
        0.9961181282997131,
        2.00191068649292
      ],
      "min": [
        -0.9948044419288635,
        -0.0019108057022094727
      ],
      "type": "VEC2"
    },
    {
      "bufferView": 1,
      "byteOffset": 457248,
      "componentType": 5126,
      "count": 3404,
      "max": [
        1.0007840394973755,
        2.00191068649292
      ],
      "min": [
        -0.9973183870315552,
        -0.0019106864929199219
      ],
      "type": "VEC2"
    },
    {
      "bufferView": 1,
      "byteOffset": 484480,
      "componentType": 5126,
      "count": 3404,
      "max": [
        0.0,
        1.0
      ],
      "min": [
        0.0,
        1.0
      ],
      "type": "VEC2"
    },
    {
      "bufferView": 1,
      "byteOffset": 511712,
      "componentType": 5126,
      "count": 3404,
      "max": [
        -132.30209350585938,
        227.3324737548828
      ],
      "min": [
        -324.49365234375,
        54.65217208862305
      ],
      "type": "VEC2"
    },
    {
      "bufferView": 1,
      "byteOffset": 538944,
      "componentType": 5126,
      "count": 3404,
      "max": [
        0.2578125,
        0.8828125
      ],
      "min": [
        0.2578125,
        0.8828125
      ],
      "type": "VEC2"
    },
    {
      "bufferView": 1,
      "byteOffset": 566176,
      "componentType": 5126,
      "count": 3404,
      "max": [
        0.0,
        1.0
      ],
      "min": [
        0.0,
        1.0
      ],
      "type": "VEC2"
    },
    {
      "bufferView": 0,
      "byteOffset": 54144,
      "componentType": 5125,
      "count": 6897,
      "type": "SCALAR"
    },
    {
      "bufferView": 2,
      "byteOffset": 222528,
      "componentType": 5126,
      "count": 4493,
      "max": [
        135.33377075195313,
        310.6334228515625,
        327.205810546875
      ],
      "min": [
        -135.91893005371094,
        -355.35662841796875,
        42.15739440917969
      ],
      "type": "VEC3"
    },
    {
      "bufferView": 2,
      "byteOffset": 276444,
      "componentType": 5126,
      "count": 4493,
      "max": [
        1.0,
        0.9999936819076538,
        0.999996542930603
      ],
      "min": [
        -0.9999870657920837,
        -0.999994158744812,
        -0.9999991059303284
      ],
      "type": "VEC3"
    },
    {
      "bufferView": 1,
      "byteOffset": 593408,
      "componentType": 5126,
      "count": 4493,
      "max": [
        0.99365234375,
        0.9977283477783203
      ],
      "min": [
        0.004730224609375,
        0.0048828125
      ],
      "type": "VEC2"
    },
    {
      "bufferView": 1,
      "byteOffset": 629352,
      "componentType": 5126,
      "count": 4493,
      "max": [
        1.002495527267456,
        2.000784158706665
      ],
      "min": [
        -1.00191068649292,
        -0.0024955272674560547
      ],
      "type": "VEC2"
    },
    {
      "bufferView": 1,
      "byteOffset": 665296,
      "componentType": 5126,
      "count": 4493,
      "max": [
        1.0037672519683838,
        2.0031862258911133
      ],
      "min": [
        -1.0037672519683838,
        -0.0032693147659301758
      ],
      "type": "VEC2"
    },
    {
      "bufferView": 1,
      "byteOffset": 701240,
      "componentType": 5126,
      "count": 4493,
      "max": [
        0.9979031085968018,
        2.000784158706665
      ],
      "min": [
        -1.00191068649292,
        0.005519747734069824
      ],
      "type": "VEC2"
    },
    {
      "bufferView": 1,
      "byteOffset": 737184,
      "componentType": 5126,
      "count": 4493,
      "max": [
        0.0,
        1.0
      ],
      "min": [
        0.0,
        1.0
      ],
      "type": "VEC2"
    },
    {
      "bufferView": 1,
      "byteOffset": 773128,
      "componentType": 5126,
      "count": 4493,
      "max": [
        -43.412841796875,
        186.40505981445313
      ],
      "min": [
        -296.74188232421875,
        -1.5395355224609375
      ],
      "type": "VEC2"
    },
    {
      "bufferView": 1,
      "byteOffset": 809072,
      "componentType": 5126,
      "count": 4493,
      "max": [
        0.1328125,
        0.8828125
      ],
      "min": [
        0.1328125,
        0.8828125
      ],
      "type": "VEC2"
    },
    {
      "bufferView": 1,
      "byteOffset": 845016,
      "componentType": 5126,
      "count": 4493,
      "max": [
        0.0,
        1.0
      ],
      "min": [
        0.0,
        1.0
      ],
      "type": "VEC2"
    },
    {
      "bufferView": 0,
      "byteOffset": 81732,
      "componentType": 5125,
      "count": 13044,
      "type": "SCALAR"
    },
    {
      "bufferView": 2,
      "byteOffset": 330360,
      "componentType": 5126,
      "count": 2864,
      "max": [
        126.91287994384766,
        245.19720458984375,
        109.05332946777344
      ],
      "min": [
        -131.26913452148438,
        10.80157470703125,
        1.6090850830078125
      ],
      "type": "VEC3"
    },
    {
      "bufferView": 2,
      "byteOffset": 364728,
      "componentType": 5126,
      "count": 2864,
      "max": [
        0.9999775886535645,
        0.9912266135215759,
        0.9909961819648743
      ],
      "min": [
        -0.9999778270721436,
        -0.9912246465682983,
        -0.9909970760345459
      ],
      "type": "VEC3"
    },
    {
      "bufferView": 1,
      "byteOffset": 880960,
      "componentType": 5126,
      "count": 2864,
      "max": [
        0.9912109375,
        0.9951362609863281
      ],
      "min": [
        -0.71240234375,
        0.00927734375
      ],
      "type": "VEC2"
    },
    {
      "bufferView": 1,
      "byteOffset": 903872,
      "componentType": 5126,
      "count": 2864,
      "max": [
        0.9984878301620483,
        1.9927259683609009
      ],
      "min": [
        -0.9984879493713379,
        0.007274031639099121
      ],
      "type": "VEC2"
    },
    {
      "bufferView": 1,
      "byteOffset": 926784,
      "componentType": 5126,
      "count": 2864,
      "max": [
        1.0057255029678345,
        1.9987404346466064
      ],
      "min": [
        -1.0057255029678345,
        0.0012595653533935547
      ],
      "type": "VEC2"
    },
    {
      "bufferView": 1,
      "byteOffset": 949696,
      "componentType": 5126,
      "count": 2864,
      "max": [
        0.9927259683609009,
        1.998487949371338
      ],
      "min": [
        -0.9927259683609009,
        0.004685461521148682
      ],
      "type": "VEC2"
    },
    {
      "bufferView": 1,
      "byteOffset": 972608,
      "componentType": 5126,
      "count": 2864,
      "max": [
        0.0,
        1.0
      ],
      "min": [
        0.0,
        1.0
      ],
      "type": "VEC2"
    },
    {
      "bufferView": 1,
      "byteOffset": 995520,
      "componentType": 5126,
      "count": 2864,
      "max": [
        -162.93975830078125,
        213.32095336914063
      ],
      "min": [
        -255.68807983398438,
        72.8721923828125
      ],
      "type": "VEC2"
    },
    {
      "bufferView": 1,
      "byteOffset": 1018432,
      "componentType": 5126,
      "count": 2864,
      "max": [
        0.1328125,
        0.8828125
      ],
      "min": [
        0.1328125,
        0.8828125
      ],
      "type": "VEC2"
    },
    {
      "bufferView": 1,
      "byteOffset": 1041344,
      "componentType": 5126,
      "count": 2864,
      "max": [
        0.0,
        1.0
      ],
      "min": [
        0.0,
        1.0
      ],
      "type": "VEC2"
    },
    {
      "bufferView": 0,
      "byteOffset": 133908,
      "componentType": 5125,
      "count": 11088,
      "type": "SCALAR"
    },
    {
      "bufferView": 2,
      "byteOffset": 399096,
      "componentType": 5126,
      "count": 1329,
      "max": [
        128.03602600097656,
        10.66998291015625,
        107.59234619140625
      ],
      "min": [
        -123.3111572265625,
        -312.81964111328125,
        0.4264984130859375
      ],
      "type": "VEC3"
    },
    {
      "bufferView": 2,
      "byteOffset": 415044,
      "componentType": 5126,
      "count": 1329,
      "max": [
        0.9999774694442749,
        0.967731773853302,
        0.9979066252708435
      ],
      "min": [
        -0.9999774694442749,
        -0.967731773853302,
        -0.9999942183494568
      ],
      "type": "VEC3"
    },
    {
      "bufferView": 1,
      "byteOffset": 1064256,
      "componentType": 5126,
      "count": 1329,
      "max": [
        0.9912109375,
        0.9951362609863281
      ],
      "min": [
        -0.71240234375,
        0.00927734375
      ],
      "type": "VEC2"
    },
    {
      "bufferView": 1,
      "byteOffset": 1074888,
      "componentType": 5126,
      "count": 1329,
      "max": [
        0.9984878301620483,
        1.995022177696228
      ],
      "min": [
        -0.9984879493713379,
        0.004977822303771973
      ],
      "type": "VEC2"
    },
    {
      "bufferView": 1,
      "byteOffset": 1085520,
      "componentType": 5126,
      "count": 1329,
      "max": [
        0.995556652545929,
        1.9984878301620483
      ],
      "min": [
        -0.9979466199874878,
        0.002053380012512207
      ],
      "type": "VEC2"
    },
    {
      "bufferView": 1,
      "byteOffset": 1096152,
      "componentType": 5126,
      "count": 1329,
      "max": [
        0.9987802505493164,
        2.000784158706665
      ],
      "min": [
        -0.9907221794128418,
        0.004685461521148682
      ],
      "type": "VEC2"
    },
    {
      "bufferView": 1,
      "byteOffset": 1106784,
      "componentType": 5126,
      "count": 1329,
      "max": [
        0.0,
        1.0
      ],
      "min": [
        0.0,
        1.0
      ],
      "type": "VEC2"
    },
    {
      "bufferView": 1,
      "byteOffset": 1117416,
      "componentType": 5126,
      "count": 1329,
      "max": [
        -51.882965087890625,
        105.52462768554688
      ],
      "min": [
        -211.3640899658203,
        3.0213546752929688
      ],
      "type": "VEC2"
    },
    {
      "bufferView": 1,
      "byteOffset": 1128048,
      "componentType": 5126,
      "count": 1329,
      "max": [
        0.1328125,
        0.8828125
      ],
      "min": [
        0.1328125,
        0.8828125
      ],
      "type": "VEC2"
    },
    {
      "bufferView": 1,
      "byteOffset": 1138680,
      "componentType": 5126,
      "count": 1329,
      "max": [
        0.0,
        1.0
      ],
      "min": [
        0.0,
        1.0
      ],
      "type": "VEC2"
    },
    {
      "bufferView": 0,
      "byteOffset": 178260,
      "componentType": 5125,
      "count": 5436,
      "type": "SCALAR"
    }
  ],
  "asset": {
    "extras": {
      "author": "Arion Digital (https://sketchfab.com/andrewswihart)",
      "license": "CC-BY-4.0 (http://creativecommons.org/licenses/by/4.0/)",
      "source": "https://sketchfab.com/3d-models/military-truck-12-ton-5d19c751b12849eeb390d637b2b686a1",
      "title": "Military Truck 1/2 Ton"
    },
    "generator": "Sketchfab-12.67.0",
    "version": "2.0"
  },
  "bufferViews": [
    {
      "buffer": 0,
      "byteLength": 200004,
      "name": "floatBufferViews",
      "target": 34963
    },
    {
      "buffer": 0,
      "byteLength": 1149312,
      "byteOffset": 200004,
      "byteStride": 8,
      "name": "floatBufferViews",
      "target": 34962
    },
    {
      "buffer": 0,
      "byteLength": 430992,
      "byteOffset": 1349316,
      "byteStride": 12,
      "name": "floatBufferViews",
      "target": 34962
    }
  ],
  "buffers": [
    {
      "byteLength": 1780308,
      "uri": "scene.bin"
    }
  ],
  "images": [
    {
      "uri": "textures/ac2965d8.dds_baseColor.png"
    },
    {
      "uri": "textures/6bd0da5e.dds_baseColor.png"
    },
    {
      "uri": "textures/27608a35.dds_baseColor.png"
    },
    {
      "uri": "textures/79bf1742.dds_baseColor.png"
    },
    {
      "uri": "textures/9dd96982.dds_baseColor.png"
    }
  ],
  "materials": [
    {
      "doubleSided": true,
      "name": "ac2965d8.dds",
      "pbrMetallicRoughness": {
        "baseColorTexture": {
          "index": 0
        },
        "metallicFactor": 0.7,
        "roughnessFactor": 0.5803983676358588
      }
    },
    {
      "doubleSided": true,
      "name": "6bd0da5e.dds",
      "pbrMetallicRoughness": {
        "baseColorTexture": {
          "index": 1
        },
        "metallicFactor": 0.7187631475100728,
        "roughnessFactor": 0.5489518267553557
      }
    },
    {
      "doubleSided": true,
      "name": "27608a35.dds",
      "pbrMetallicRoughness": {
        "baseColorTexture": {
          "index": 2
        },
        "metallicFactor": 0.731341763862274,
        "roughnessFactor": 0.5552411349314563
      }
    },
    {
      "doubleSided": true,
      "name": "79bf1742.dds",
      "pbrMetallicRoughness": {
        "baseColorTexture": {
          "index": 3
        },
        "metallicFactor": 0.0,
        "roughnessFactor": 0.7026205002886694
      }
    },
    {
      "doubleSided": true,
      "name": "9dd96982.dds",
      "pbrMetallicRoughness": {
        "baseColorTexture": {
          "index": 4
        },
        "metallicFactor": 0.0,
        "roughnessFactor": 0.7403563493452732
      }
    }
  ],
  "meshes": [
    {
      "name": "armytruck_ac2965d8.dds_0",
      "primitives": [
        {
          "attributes": {
            "NORMAL": 1,
            "POSITION": 0,
            "TEXCOORD_0": 2,
            "TEXCOORD_1": 3,
            "TEXCOORD_2": 4,
            "TEXCOORD_3": 5,
            "TEXCOORD_4": 6,
            "TEXCOORD_5": 7,
            "TEXCOORD_6": 8,
            "TEXCOORD_7": 9
          },
          "indices": 10,
          "material": 0,
          "mode": 4
        }
      ]
    },
    {
      "name": "armytruck_6bd0da5e.dds_0",
      "primitives": [
        {
          "attributes": {
            "NORMAL": 12,
            "POSITION": 11,
            "TEXCOORD_0": 13,
            "TEXCOORD_1": 14,
            "TEXCOORD_2": 15,
            "TEXCOORD_3": 16,
            "TEXCOORD_4": 17,
            "TEXCOORD_5": 18,
            "TEXCOORD_6": 19,
            "TEXCOORD_7": 20
          },
          "indices": 21,
          "material": 1,
          "mode": 4
        }
      ]
    },
    {
      "name": "armytruck_27608a35.dds_0",
      "primitives": [
        {
          "attributes": {
            "NORMAL": 23,
            "POSITION": 22,
            "TEXCOORD_0": 24,
            "TEXCOORD_1": 25,
            "TEXCOORD_2": 26,
            "TEXCOORD_3": 27,
            "TEXCOORD_4": 28,
            "TEXCOORD_5": 29,
            "TEXCOORD_6": 30,
            "TEXCOORD_7": 31
          },
          "indices": 32,
          "material": 2,
          "mode": 4
        }
      ]
    },
    {
      "name": "armytruck_79bf1742.dds_0",
      "primitives": [
        {
          "attributes": {
            "NORMAL": 34,
            "POSITION": 33,
            "TEXCOORD_0": 35,
            "TEXCOORD_1": 36,
            "TEXCOORD_2": 37,
            "TEXCOORD_3": 38,
            "TEXCOORD_4": 39,
            "TEXCOORD_5": 40,
            "TEXCOORD_6": 41,
            "TEXCOORD_7": 42
          },
          "indices": 43,
          "material": 3,
          "mode": 4
        }
      ]
    },
    {
      "name": "armytruck_9dd96982.dds_0",
      "primitives": [
        {
          "attributes": {
            "NORMAL": 45,
            "POSITION": 44,
            "TEXCOORD_0": 46,
            "TEXCOORD_1": 47,
            "TEXCOORD_2": 48,
            "TEXCOORD_3": 49,
            "TEXCOORD_4": 50,
            "TEXCOORD_5": 51,
            "TEXCOORD_6": 52,
            "TEXCOORD_7": 53
          },
          "indices": 54,
          "material": 4,
          "mode": 4
        }
      ]
    }
  ],
  "nodes": [
    {
      "children": [
        1
      ],
      "matrix": [
        1.0,
        0.0,
        0.0,
        0.0,
        0.0,
        2.220446049250313e-16,
        -1.0,
        0.0,
        0.0,
        1.0,
        2.220446049250313e-16,
        0.0,
        0.0,
        0.0,
        0.0,
        1.0
      ],
      "name": "Sketchfab_model"
    },
    {
      "children": [
        2
      ],
      "matrix": [
        1.0,
        0.0,
        0.0,
        0.0,
        0.0,
        0.0,
        1.0,
        0.0,
        0.0,
        -1.0,
        0.0,
        0.0,
        0.0,
        0.0,
        0.0,
        1.0
      ],
      "name": "army trucks.FBX"
    },
    {
      "children": [
        3
      ],
      "name": "RootNode"
    },
    {
      "children": [
        4,
        5,
        6,
        7,
        8
      ],
      "matrix": [
        1.0,
        0.0,
        0.0,
        0.0,
        0.0,
        2.220446049250313e-16,
        -1.0,
        0.0,
        0.0,
        1.0,
        2.220446049250313e-16,
        0.0,
        -7.140636444091797e-05,
        0.0003305915743112564,
        -0.025859832763671875,
        1.0
      ],
      "name": "armytruck"
    },
    {
      "mesh": 0,
      "name": "armytruck_ac2965d8.dds_0"
    },
    {
      "mesh": 1,
      "name": "armytruck_6bd0da5e.dds_0"
    },
    {
      "mesh": 2,
      "name": "armytruck_27608a35.dds_0"
    },
    {
      "mesh": 3,
      "name": "armytruck_79bf1742.dds_0"
    },
    {
      "mesh": 4,
      "name": "armytruck_9dd96982.dds_0"
    }
  ],
  "samplers": [
    {
      "magFilter": 9729,
      "minFilter": 9987,
      "wrapS": 10497,
      "wrapT": 10497
    }
  ],
  "scene": 0,
  "scenes": [
    {
      "name": "Sketchfab_Scene",
      "nodes": [
        0
      ]
    }
  ],
  "textures": [
    {
      "sampler": 0,
      "source": 0
    },
    {
      "sampler": 0,
      "source": 1
    },
    {
      "sampler": 0,
      "source": 2
    },
    {
      "sampler": 0,
      "source": 3
    },
    {
      "sampler": 0,
      "source": 4
    }
  ]
}
